<?xml version="1.0" encoding="utf-8"?>
<!-- Generator: Adobe Illustrator 25.1.0, SVG Export Plug-In . SVG Version: 6.00 Build 0)  -->
<svg version="1.1" id="Layer_1" xmlns="http://www.w3.org/2000/svg" xmlns:xlink="http://www.w3.org/1999/xlink" x="0px" y="0px"
	 viewBox="0 0 100 100" style="enable-background:new 0 0 100 100;" xml:space="preserve">
<style type="text/css">
	.st0{fill:#FFFFFF;}
</style>
<path class="st0" d="M42.7,46.2L13,10.6C10.9,8,7.2,7.7,4.7,9.8s-2.9,5.8-0.7,8.4L30.4,50L3.9,81.8c-2.1,2.5-1.9,6.4,0.7,8.4
	c2.9,2.2,7.2,0.7,8.4-0.7l29.7-35.6C44.6,51.6,44.6,48.4,42.7,46.2z"/>
<path class="st0" d="M91.6,79.7H55.3c-3.3,0-5.9,2.7-5.9,5.9s2.7,5.9,5.9,5.9h36.3c3.3,0,5.9-2.7,5.9-5.9
	C97.5,82.3,94.8,79.7,91.6,79.7z"/>
</svg>
